<?xml version="1.0" encoding="utf-8"?>
<!-- Generator: Adobe Illustrator 23.0.1, SVG Export Plug-In . SVG Version: 6.00 Build 0)  -->
<svg version="1.1" id="Layer_1" xmlns="http://www.w3.org/2000/svg" xmlns:xlink="http://www.w3.org/1999/xlink" x="0px" y="0px"
	 viewBox="0 0 1942 511" style="enable-background:new 0 0 1942 511;" xml:space="preserve">
<style type="text/css">
	.st0{fill:#F37443;}
	.st1{fill:#FFFFFF;}
</style>
<path class="st0" d="M465.2,259.4c-0.2-0.6-0.7-1-1.3-1.2l-42-8.3l35.9-80.7c0.2-0.6,0.2-1.2-0.2-1.7c-0.4-0.5-1-0.7-1.6-0.6
	l-42.8,8.7l-2-98.7c0-0.7-0.4-1.2-1-1.5s-1.3-0.1-1.8,0.3L285.7,196.3c-0.5,0.5-0.6,1.3-0.3,1.9l7.9,16.5c0.3,0.6,0.9,1,1.5,0.9
	l3.5-0.1l-4.7,22.4c-0.2,0.8,0.3,1.6,1,1.9l5.4,2.1L286.9,261c-0.5,0.7-0.4,1.6,0.2,2.1l4,3.8l-19.2,12.5c-0.7,0.4-0.9,1.3-0.6,2.1
	l2.4,5.3l-22.9,4.2c-0.8,0.1-1.4,0.9-1.4,1.7l0.1,5.5l-22.4-4.7c-0.8-0.2-1.6,0.3-1.9,1l-2.1,5.4L204,286.7
	c-0.7-0.5-1.6-0.4-2.1,0.2l-3.8,4l-12.5-19.1c-0.4-0.7-1.3-0.9-2.1-0.6l-5.2,2.4l-4.2-22.9c-0.1-0.8-0.9-1.4-1.7-1.4l-5.6,0.1
	l4.7-22.4c0.2-0.8-0.3-1.6-1-1.9l-5.4-2.1l13.2-19.2c0.5-0.7,0.4-1.6-0.2-2.1l-4-3.8l19.1-12.5c0.7-0.4,0.9-1.3,0.6-2.1l-2.3-5.3
	l22.9-4.2c0.8-0.1,1.4-0.9,1.4-1.7l-0.1-5.5l22.3,4.7c0.8,0.2,1.6-0.3,1.9-1l2.1-5.4l19.2,13.2c0.7,0.4,1.6,0.4,2.1-0.2l82.2-86
	c0.6-0.6,0.6-1.6,0-2.3L261.2,0.3c-0.4-0.4-1.1-0.6-1.7-0.4s-1,0.7-1.2,1.3l-8.4,42L169.4,7.3c-0.6-0.2-1.2-0.2-1.7,0.2
	c-0.5,0.4-0.7,1-0.6,1.6l8.4,41.5l-86.8-2.5c-0.6,0-1.2,0.3-1.5,0.8c-0.3,0.5-0.3,1.2,0.1,1.7l23.8,35.6l-82.4,31.7
	c-0.6,0.2-1,0.8-1,1.4s0.2,1.2,0.7,1.6l35.3,23.4L0.5,203.9c-0.4,0.4-0.6,1.1-0.4,1.7c0.2,0.6,0.7,1,1.3,1.2l42,8.3L7.5,295.6
	c-0.2,0.6-0.2,1.2,0.2,1.7c0.4,0.5,1,0.7,1.6,0.6l41.5-8.5l-2.5,86.9c0,0.6,0.3,1.2,0.8,1.5c0.5,0.3,1.2,0.3,1.7-0.1L86.4,354
	l31.7,82.4c0.2,0.6,0.7,1,1.4,1c0.6,0.1,1.2-0.2,1.6-0.7l23.4-35.3l59.7,63.2c0.3,0.3,0.6,0.5,1,0.5c0.2,0,0.5,0,0.7,0
	c0.6-0.2,1-0.7,1.2-1.3l8.3-42l80.7,35.9c0.6,0.2,1.2,0.2,1.7-0.2c0.5-0.4,0.7-1,0.6-1.6l-8.5-41.5l86.8,2.5c0.6,0,1.2-0.3,1.5-0.9
	s0.3-1.2-0.1-1.7l-23.8-35.5l82.4-31.7c0.6-0.2,1-0.8,1-1.4c0.1-0.6-0.2-1.2-0.7-1.6l-35.3-23.4l63.2-59.6
	C465.2,260.6,465.4,260,465.2,259.4z"/>
<g>
	<g>
		<path class="st1" d="M695.7,174.5l32.2-115.7h47.9l-61.7,192.8h-33.9l-44.3-126.4l-44.3,126.4h-33.9L496,58.8H544l32.2,115.7
			l42.4-115.7h34.7L695.7,174.5z"/>
		<path class="st1" d="M798.2,251.6V58.8H845v192.8H798.2z"/>
		<path class="st1" d="M1024.3,58.8h46.8v192.8h-41.3l-98-114.6v114.6h-46.8V58.8h41.3l98,114.8L1024.3,58.8L1024.3,58.8z"/>
		<path class="st1" d="M1167.8,58.8c77.1,0,117.9,41.6,117.9,96.4c0,54.8-40.8,96.4-117.9,96.4h-60.9V58.8H1167.8z M1163.4,212.2
			c48.2,0,75.4-19.3,75.4-57s-27.3-57-75.4-57h-9.6v114L1163.4,212.2L1163.4,212.2z"/>
		<path class="st1" d="M1420.9,183.3l76.3-124.5h31.4v192.8h-45.2v-93.4l-62.5,96.1l-62.5-96.1v93.4h-45.2V58.8h31.4L1420.9,183.3z"
			/>
		<path class="st1" d="M1568.6,251.6V58.8h46.8v192.8H1568.6z"/>
		<path class="st1" d="M1702.1,210.9h82.1v40.8h-128.9V58.8h46.8V210.9z"/>
		<path class="st1" d="M1859.9,210.9h82.1v40.8h-128.9V58.8h46.8L1859.9,210.9L1859.9,210.9z"/>
	</g>
</g>
<g>
	<path class="st1" d="M553.4,453.7c4.2,23.4,19.9,39.1,47.1,39.1c27.7,0,44.3-16.2,44.3-36.9c0-19.8-13.6-30.9-33.8-36.6l-24.1-6.9
		c-28.5-8.3-48.7-23.1-48.7-51c0-30.9,26-51.2,60.1-51.2c35.4,0,57.3,22.6,59.8,52.3h-20.2c-2.5-20.1-16.9-34.4-39.9-34.4
		c-23.3,0-38.5,12.4-38.5,32.8c0,19.8,14.4,27.3,34.9,33l23,6.9c30.2,8.5,48.7,24,48.7,53.7c0,33-28,56.2-65.9,56.2
		c-38.2,0-62.9-23.1-67.8-57L553.4,453.7L553.4,453.7z"/>
	<path class="st1" d="M832.4,333H769v173.8h-22.2V333h-63.4v-19h149V333z"/>
	<path class="st1" d="M932.9,445.7h-42.1v61.2h-22.2V314h73.7c41.5,0,69.2,30.3,69.2,65.6c0,30.6-20.8,57.6-52.9,64.5l59,62.8h-28
		L932.9,445.7z M940.1,426.7c32.1,0,49.6-22.9,49.6-47.1S972.2,333,940.1,333h-49.3v93.7L940.1,426.7L940.1,426.7z"/>
	<path class="st1" d="M1181.2,465.2h-101.3l-16.9,41.6h-23l81.4-192.8h18.3l81.4,192.8h-23L1181.2,465.2z M1087.4,446.8h86.4
		l-43.2-107.4L1087.4,446.8z"/>
	<path class="st1" d="M1367,333h-63.4v173.8h-22.2V333H1218v-19h149V333z"/>
	<path class="st1" d="M1403.2,314h122.4v19.3h-100.2v65.8h97.7v19.3h-97.7v69.1h101.3v19.3h-123.5L1403.2,314L1403.2,314z"/>
	<path class="st1" d="M1728.8,368.6c-13-23.4-37.1-39.1-70.3-39.1c-48.2,0-81.4,33.9-81.4,81c0,48.2,34.1,81.5,81.4,81.5
		c42.9,0,68.1-25.1,77.2-57h-88.9v-18.2h112.4c-3.3,51.5-41.2,93.9-100.8,93.9c-59.8,0-103.6-43.5-103.6-100.3
		c0-57.6,42.9-100.3,103.6-100.3c43.2,0,76.1,21.5,92.5,58.4L1728.8,368.6L1728.8,368.6z"/>
	<path class="st1" d="M1907.1,314h23.8l-69.5,119v73.8h-22.2V433l-69.5-119h23.8l56.8,98.4L1907.1,314z"/>
</g>
</svg>
